<svg xmlns="http://www.w3.org/2000/svg" viewBox="0 0 100 100">
  <defs>
    <radialGradient id="favicon-brand-radial" cx="50%" cy="40%" r="60%">
      <stop offset="0%" stop-color="#00b4d8" />
      <stop offset="100%" stop-color="#0077b6" />
    </radialGradient>
  </defs>
  <circle cx="50" cy="50" r="46" fill="url(#favicon-brand-radial)" />
  <path
    d="M 50,26 C 55,26 58,22 63.5,22 C 69,22 72,26 72,34 C 72,44 67.5,49 67.5,56 C 67.5,65 61.5,72 61.5,72 C 59.5,72 58.5,70 56.5,62 C 55.5,55 53.5,53 50,53 C 46.5,53 44.5,55 43.5,62 C 41.5,70 40.5,72 38.5,72 C 38.5,72 32.5,65 32.5,56 C 32.5,49 28,44 28,34 C 28,26 31,22 36.5,22 C 42,22 45,26 50,26 Z"
    fill="#fff"
  />
  <path d="M 47.5,34 H 52.5 V 38.5 H 57 V 43.5 H 52.5 V 48 H 47.5 V 43.5 H 43 V 38.5 H 47.5 Z" fill="#0077b6" />
  <path
    d="M 11.5,54 C 20,62 38,65 52,61 C 68,57 82,46 88.5,38 C 78,47 62,55 48,56 C 32,57 18,54 11.5,54 Z"
    fill="#fff"
    opacity="0.95"
  />
</svg>
